# xmcd CD database file
#
# Track frame offsets:
#	150
#	11955
#	23270
#	34230
#	57080
#	75920
#	89675
#	105080
#	122245
#	137042
#	150160
#	168457
#	191597
#	211807
#	225997
#	241100
#	258055
#	284990
#
# Disc length: 3979 seconds
#
# Revision: 0
# Processed by: cddbd v1.5.2PL0 Copyright (c) Steve Scherf et al.
# Submitted via: CDex 1.70beta2
#
DISCID=da0f8912
DTITLE=Peter Nero   - Candellight Moods And Memories (Readers Digest)
DYEAR=2000
DGENRE=Easy Listening Instrumentals
TTITLE0=Peter Nero - Candlelight and Wine
TTITLE1=Peter Nero - How High The Moon
TTITLE2=Peter Nero - Magic Is The Moonlight
TTITLE3=Peter Nero - My Funny Valentine
TTITLE4=Peter Nero - With A Song In My Heart
TTITLE5=Peter Nero - Maria Elena
TTITLE6=Peter Nero - I'll Remember April
TTITLE7=Peter Nero - Summer Of 42 (Theme From )
TTITLE8=Peter Nero - You Are Too Beautiful
TTITLE9=Peter Nero - Love Walked In
TTITLE10=Peter Nero - Softly, As In A Morning Sunrise
TTITLE11=Peter Nero - Stormy Weather
TTITLE12=Peter Nero - Far Away Places
TTITLE13=Peter Nero - Love Is The Sweetest Thing
TTITLE14=Peter Nero - The Night Has A Thousand Eyes
TTITLE15=Peter Nero - Midnight In Moscow
TTITLE16=Peter Nero - When I Fall In Love
TTITLE17=Peter Nero - Smile
EXTD=YEAR: 2000
EXTT0=
EXTT1=
EXTT2=
EXTT3=
EXTT4=
EXTT5=
EXTT6=
EXTT7=
EXTT8=
EXTT9=
EXTT10=
EXTT11=
EXTT12=
EXTT13=
EXTT14=
EXTT15=
EXTT16=
EXTT17=
PLAYORDER=
